<svg xmlns="http://www.w3.org/2000/svg" viewBox="0 0 512 512" role="img" aria-labelledby="title desc">
  <title id="title">py-Augur sticker</title>
  <desc id="desc">OmicVerse repository hex sticker for py-Augur.</desc>
  <defs>
    <linearGradient id="bg" x1="112" y1="90" x2="398" y2="430" gradientUnits="userSpaceOnUse">
      <stop offset="0" stop-color="#050706"/>
      <stop offset=".58" stop-color="#020403"/>
      <stop offset="1" stop-color="#000000"/>
    </linearGradient>
  </defs>
  <polygon points="256,34 450,146 450,368 256,480 62,368 62,146" fill="#000000" opacity=".34"/>
  <polygon points="256,22 458,139 458,373 256,490 54,373 54,139" fill="url(#bg)" stroke="#0B0F0A" stroke-width="19" stroke-linejoin="round"/>
  <polygon points="256,22 458,139 458,373 256,490 54,373 54,139" fill="none" stroke="#E8FFE0" stroke-width="12" stroke-linejoin="round"/>
  <g opacity=".22" stroke="#3FD36B" stroke-width="2.2">
    <path d="M112 166h288M100 222h312M100 278h312M112 334h288"/>
    <path d="M152 126v236M204 104v274M256 96v286M308 104v274M360 126v236"/>
  </g>
  <g id="motif">
    <path d="M256 128l30 94 98 2-80 56 28 96-76-58-78 58 30-96-80-56 98-2z" fill="#FFD60A" stroke="#FFFFFF" stroke-width="6" stroke-linejoin="round"/>
    <circle cx="256" cy="254" r="34" fill="#00C7BE" opacity=".82"/>
    <path d="M118 354h276" stroke="#32D74B" stroke-width="7" stroke-linecap="round"/>
  </g>
  <path id="label" d="M306.13,382.18 L311.08,390.75 L305.87,393.77 L292.85,371.22 L298.07,368.21 L299.44,370.60 Q299.70,368.54 300.62,367.11 Q301.54,365.67 303.25,364.69 Q306.27,362.94 309.59,364.22 Q312.92,365.50 315.10,369.28 Q317.28,373.05 316.73,376.58 Q316.18,380.10 313.16,381.84 Q311.45,382.83 309.75,382.91 Q308.04,382.98 306.13,382.18 Z M303.50,369.60 Q301.82,370.57 301.63,372.32 Q301.45,374.07 302.79,376.39 Q304.13,378.71 305.74,379.42 Q307.35,380.13 309.02,379.17 Q310.70,378.20 310.88,376.47 Q311.05,374.73 309.71,372.39 Q308.36,370.06 306.77,369.35 Q305.18,368.63 303.50,369.60 Z M312.08,360.11 L317.31,357.10 L328.10,365.65 L325.43,352.41 L330.65,349.39 L334.10,371.24 Q334.65,374.57 333.89,376.45 Q333.14,378.33 330.88,379.63 L327.86,381.38 L325.89,377.95 L327.52,377.01 Q328.84,376.24 329.20,375.47 Q329.57,374.70 329.27,373.41 L329.16,372.87 L312.08,360.11 Z M336.05,353.76 L345.21,348.47 L347.66,352.72 L338.50,358.00 L336.05,353.76 Z M366.69,345.08 L357.91,350.15 L358.81,354.91 L353.16,358.18 L348.66,331.74 L355.35,327.87 L375.99,345.00 L370.35,348.25 L366.69,345.08 Z M356.97,345.30 L362.94,341.85 L354.96,334.91 L356.97,345.30 Z M374.80,337.20 L369.04,327.23 L374.29,324.20 L375.23,325.83 Q376.00,327.16 377.14,329.17 Q378.29,331.19 378.67,331.85 Q379.81,333.82 380.42,334.63 Q381.02,335.44 381.50,335.69 Q382.11,336.02 382.79,336.00 Q383.46,335.98 384.14,335.59 Q385.77,334.65 385.98,332.85 Q386.19,331.06 384.90,328.83 L380.24,320.76 L385.46,317.75 L394.90,334.08 L389.67,337.10 L388.31,334.73 Q387.95,336.84 387.03,338.29 Q386.10,339.73 384.51,340.64 Q381.68,342.28 379.19,341.40 Q376.71,340.52 374.80,337.20 Z M409.43,322.00 Q409.17,324.05 408.26,325.47 Q407.35,326.89 405.65,327.87 Q402.65,329.60 399.34,328.38 Q396.03,327.15 393.92,323.50 Q391.81,319.84 392.41,316.37 Q393.01,312.90 396.01,311.17 Q397.71,310.19 399.39,310.11 Q401.08,310.03 403.00,310.85 L401.60,308.43 L406.85,305.40 L415.33,320.09 Q417.60,324.03 416.31,327.54 Q415.03,331.05 410.30,333.78 Q408.77,334.67 407.20,335.26 Q405.64,335.85 403.92,336.20 L401.57,332.13 Q403.39,332.13 404.93,331.76 Q406.47,331.39 407.79,330.62 Q410.36,329.14 410.91,327.33 Q411.46,325.51 410.08,323.12 L409.43,322.00 Z M400.11,313.82 Q398.49,314.75 398.28,316.48 Q398.07,318.19 399.33,320.37 Q400.63,322.62 402.17,323.28 Q403.72,323.93 405.39,322.96 Q407.03,322.02 407.24,320.30 Q407.46,318.58 406.20,316.41 Q404.94,314.22 403.35,313.55 Q401.75,312.88 400.11,313.82 Z M417.45,312.58 L411.69,302.60 L416.94,299.57 L417.88,301.21 Q418.65,302.53 419.79,304.55 Q420.94,306.56 421.32,307.23 Q422.46,309.20 423.06,310.01 Q423.67,310.82 424.14,311.07 Q424.76,311.40 425.44,311.38 Q426.11,311.35 426.78,310.97 Q428.42,310.02 428.63,308.23 Q428.84,306.43 427.55,304.20 L422.89,296.14 L428.11,293.12 L437.55,309.46 L432.32,312.47 L430.96,310.11 Q430.60,312.22 429.68,313.67 Q428.74,315.11 427.16,316.02 Q424.32,317.66 421.84,316.78 Q419.36,315.89 417.45,312.58 Z M447.84,287.67 Q446.96,287.74 446.20,287.98 Q445.43,288.22 444.74,288.62 Q442.73,289.78 442.39,291.70 Q442.05,293.62 443.44,296.02 L447.78,303.55 L442.56,306.56 L433.13,290.22 L438.35,287.21 L439.90,289.90 Q439.98,287.71 440.86,286.22 Q441.74,284.73 443.57,283.68 Q443.83,283.53 444.14,283.38 Q444.46,283.22 445.09,282.95 L447.84,287.67 Z" fill="#FFFFFF"/>
</svg>
